<?xml version="1.0" encoding="UTF-8" standalone="no"?>
<svg
   class="img-fluid"
   id="outputsvg"
   width="2471.832"
   height="2795.0991"
   viewBox="0 0 24718.32 27950.99"
   version="1.1"
   sodipodi:docname="zum.svg"
   xml:space="preserve"
   inkscape:version="1.2.2 (732a01da63, 2022-12-09)"
   inkscape:export-filename="zum.png"
   inkscape:export-xdpi="90"
   inkscape:export-ydpi="90"
   xmlns:inkscape="http://www.inkscape.org/namespaces/inkscape"
   xmlns:sodipodi="http://sodipodi.sourceforge.net/DTD/sodipodi-0.dtd"
   xmlns="http://www.w3.org/2000/svg"
   xmlns:svg="http://www.w3.org/2000/svg"><defs
     id="defs23"><rect
       x="-1961.2203"
       y="-1353.7627"
       width="3931.1187"
       height="1249.6271"
       id="rect2597" /></defs><sodipodi:namedview
     id="namedview21"
     pagecolor="#ffffff"
     bordercolor="#999999"
     borderopacity="1"
     inkscape:showpageshadow="0"
     inkscape:pageopacity="0"
     inkscape:pagecheckerboard="0"
     inkscape:deskcolor="#d1d1d1"
     showgrid="false"
     inkscape:zoom="0.11523438"
     inkscape:cx="-5228.4743"
     inkscape:cy="6569.2201"
     inkscape:window-width="3840"
     inkscape:window-height="2126"
     inkscape:window-x="-11"
     inkscape:window-y="-11"
     inkscape:window-maximized="1"
     inkscape:current-layer="outputsvg" /><g
     id="g2541"
     transform="matrix(1.3015285,0,0,1.3015286,-16329.177,24140.078)"><g
       id="l21cZzh3XF34FTQwfVRIytP"
       fill="#ffffff"
       transform="matrix(2.7854341,0,0,2.7854341,14912.25,-18006.153)"><g
         id="g323"><path
           id="ptyL1TeNt"
           d="m 27,5022 c -22,-24 -21,-56 2,-90 10,-15 83,-270 161,-567 79,-297 150,-548 158,-557 20,-24 40,-23 297,12 121,16 224,30 229,30 5,0 -41,-51 -102,-113 -98,-101 -112,-120 -127,-171 -20,-68 -10,-126 30,-188 70,-107 234,-125 331,-36 l 22,19 16,-71 c 9,-39 34,-106 56,-148 38,-74 103,-140 1482,-1519 C 4116,90 4044,159 4190,108 c 30,-10 94,-22 141,-25 172,-12 330,48 454,171 118,118 175,254 175,421 0,100 -18,181 -63,274 -29,62 -123,158 -1461,1499 -940,942 -1452,1447 -1491,1473 -60,40 -194,89 -241,89 h -26 l 28,33 c 124,147 18,368 -176,367 -63,-1 -119,-36 -233,-148 -96,-94 -108,-103 -103,-77 3,17 19,133 36,259 30,221 30,230 13,247 -11,11 -221,72 -568,165 -332,88 -559,154 -574,165 -30,24 -53,24 -74,1 z" /></g></g><g
       id="l48gc1SN4Lgt3SHUjgU7UpW"
       fill="#b2e7f1"
       transform="matrix(2.7854341,0,0,2.7854341,14912.25,-18006.153)"
       style="fill:#46baff;fill-opacity:1"><g
         id="g328"
         style="fill:#46baff;fill-opacity:1"><path
           id="poaf0jc5Q"
           d="m 486,2762 c -3,-5 -26,-67 -51,-138 -26,-71 -52,-135 -59,-141 -6,-7 -65,-37 -131,-66 -112,-50 -120,-55 -120,-81 0,-27 8,-32 116,-80 64,-28 123,-57 132,-64 8,-7 36,-73 62,-147 47,-133 65,-159 91,-133 7,7 35,73 62,147 l 49,135 123,55 c 122,56 148,75 138,103 -3,8 -63,38 -132,68 -142,61 -126,43 -188,220 -16,47 -36,95 -44,108 -14,22 -38,29 -48,14 z"
           style="fill:#46baff;fill-opacity:1" /><path
           id="pQx7j4Liu"
           d="m 1355,928 c -35,-98 -74,-201 -77,-203 -2,-2 -43,-21 -93,-43 -119,-54 -118,-63 4,-122 l 94,-46 37,-104 c 20,-57 42,-106 48,-108 15,-5 23,10 62,117 l 35,95 70,33 c 110,51 120,58 120,73 0,9 -39,34 -94,61 l -95,46 -23,64 c -13,35 -30,83 -39,107 -15,40 -40,55 -49,30 z"
           style="fill:#46baff;fill-opacity:1" /></g></g><g
       id="l3EEQcLIOaj8a5xg2Oy13ph"
       fill="#ffe266"
       transform="matrix(2.7854341,0,0,2.7854341,14912.25,-18006.153)"
       style="fill:#ffe783;fill-opacity:1"><g
         id="g333"
         style="fill:#ffe783;fill-opacity:1"><path
           id="p17mdouTjz"
           d="m 27,5022 c -22,-24 -21,-56 2,-90 10,-15 83,-270 161,-567 79,-297 150,-548 158,-557 20,-24 40,-23 297,12 121,16 224,30 229,30 5,0 -41,-51 -102,-113 -98,-101 -112,-120 -127,-171 -20,-68 -10,-126 30,-188 70,-107 234,-125 331,-36 l 22,19 16,-71 c 9,-39 34,-106 56,-148 38,-74 103,-140 1482,-1519 C 4116,90 4044,159 4190,108 c 30,-10 94,-22 141,-25 172,-12 330,48 454,171 118,118 175,254 175,421 0,100 -18,181 -63,274 -29,62 -123,158 -1461,1499 -940,942 -1452,1447 -1491,1473 -60,40 -194,89 -241,89 h -26 l 28,33 c 124,147 18,368 -176,367 -63,-1 -119,-36 -233,-148 -96,-94 -108,-103 -103,-77 3,17 19,133 36,259 30,221 30,230 13,247 -11,11 -221,72 -568,165 -332,88 -559,154 -574,165 -30,24 -53,24 -74,1 z M 3747,1152 c 186,-179 211,-212 198,-265 -16,-64 -99,-95 -157,-59 -18,12 -108,97 -200,190 -167,168 -168,169 -168,213 0,36 5,50 28,71 66,63 90,50 299,-150 z m 394,-391 c 44,-43 49,-53 49,-94 0,-38 -5,-49 -31,-71 -22,-19 -42,-26 -71,-26 -34,0 -47,7 -90,48 -45,43 -51,53 -51,91 0,61 40,101 101,101 40,0 50,-5 93,-49 z"
           style="fill:#ffe783;fill-opacity:1" /><path
           id="p16bLITpxt"
           d="m 3752,2601 c -57,-15 -108,-56 -136,-112 -31,-63 -33,-118 -7,-174 13,-27 208,-229 607,-627 613,-610 610,-608 689,-608 71,0 157,57 190,126 21,45 21,133 0,176 -23,45 -1150,1174 -1197,1198 -44,24 -102,32 -146,21 z"
           style="fill:#ffe783;fill-opacity:1" /></g></g><g
       id="lYkaLkuj0MhyMjSoLVwHSY"
       fill="#8bb6ef"
       transform="matrix(2.7854341,0,0,2.7854341,14912.25,-18006.153)"
       style="fill:#009df9;fill-opacity:1"><g
         id="g339"
         style="fill:#009df9;fill-opacity:1"><path
           id="pDcubRhaU"
           d="m 1357,3682 -328,-328 16,-68 c 8,-38 33,-103 55,-145 38,-73 106,-142 1482,-1518 C 4116,90 4044,159 4190,108 c 30,-10 94,-22 141,-25 172,-12 330,48 454,171 118,118 175,254 175,421 0,100 -18,181 -63,274 -29,62 -123,158 -1461,1499 -940,942 -1452,1447 -1491,1473 -58,38 -194,89 -238,89 -16,0 -118,-96 -350,-328 z M 3747,1152 c 186,-179 211,-212 198,-265 -16,-64 -99,-95 -157,-59 -18,12 -108,97 -200,190 -167,168 -168,169 -168,213 0,36 5,50 28,71 66,63 90,50 299,-150 z m 394,-391 c 44,-43 49,-53 49,-94 0,-38 -5,-49 -31,-71 -22,-19 -42,-26 -71,-26 -34,0 -47,7 -90,48 -45,43 -51,53 -51,91 0,61 40,101 101,101 40,0 50,-5 93,-49 z"
           style="fill:#009df9;fill-opacity:1" /><path
           id="pIUtjrWbe"
           d="m 636,1239 c -53,-42 -19,-129 50,-129 67,0 100,88 48,129 -15,12 -37,21 -49,21 -12,0 -34,-9 -49,-21 z"
           style="fill:#009df9;fill-opacity:1" /><path
           id="p15wBc9NZ2"
           d="m 2665,527 c -94,-44 -140,-157 -101,-250 18,-43 76,-93 127,-108 77,-23 162,13 206,88 70,120 -10,271 -149,280 -31,2 -65,-2 -83,-10 z"
           style="fill:#009df9;fill-opacity:1" /></g></g><g
       id="l3xbNdupKffwPnZzaIhpNzT"
       fill="#d0844b"
       transform="matrix(2.7854341,0,0,2.7854341,14912.25,-18006.153)"><g
         id="g353"><path
           id="pgESxGfn4"
           d="m 27,5022 c -41,-45 -31,-61 215,-309 l 232,-234 1,-57 c 2,-93 60,-154 149,-154 117,0 187,111 137,216 -29,60 -73,86 -142,86 H 565 L 370,4766 C 98,5040 65,5064 27,5022 Z" /></g></g></g><text
     xml:space="preserve"
     transform="matrix(20.366057,0,0,20.366058,40260.07,35960.659)"
     id="text2595"
     style="font-style:normal;font-weight:normal;font-size:1000px;line-height:1.25;font-family:sans-serif;white-space:pre;shape-inside:url(#rect2597);display:inline;fill:#0082f8;fill-opacity:1;stroke:none"><tspan
       x="-1961.2207"
       y="-443.88654"
       id="tspan924"><tspan
         style="font-size:500px;font-family:'Earth Orbiter';-inkscape-font-specification:'Earth Orbiter'"
         id="tspan922">ZuM</tspan></tspan></text></svg>
